<mxfile host="app.diagrams.net" modified="2021-02-19T21:52:50.854Z" agent="5.0 (Windows NT 10.0; Win64; x64) AppleWebKit/537.36 (KHTML, like Gecko) Chrome/84.0.4147.125 Safari/537.36 Edg/84.0.522.59" etag="4MC9F7cpsk1ceU3Ze14G" version="14.4.2" type="github" pages="2">
  <diagram id="kgpKYQtTHZ0yAKxKKP6v" name="Idology">
    <mxGraphModel dx="1422" dy="714" grid="1" gridSize="10" guides="1" tooltips="1" connect="1" arrows="1" fold="1" page="1" pageScale="1" pageWidth="1100" pageHeight="850" math="0" shadow="0">
      <root>
        <mxCell id="0" />
        <mxCell id="1" parent="0" />
        <mxCell id="3nuBFxr9cyL0pnOWT2aG-1" value="RISE" style="shape=umlLifeline;perimeter=lifelinePerimeter;container=1;collapsible=0;recursiveResize=0;rounded=0;shadow=0;strokeWidth=1;" parent="1" vertex="1">
          <mxGeometry x="145" y="80" width="100" height="460" as="geometry" />
        </mxCell>
        <mxCell id="3nuBFxr9cyL0pnOWT2aG-2" value="" style="points=[];perimeter=orthogonalPerimeter;rounded=0;shadow=0;strokeWidth=1;" parent="3nuBFxr9cyL0pnOWT2aG-1" vertex="1">
          <mxGeometry x="45" y="70" width="10" height="390" as="geometry" />
        </mxCell>
        <mxCell id="3nuBFxr9cyL0pnOWT2aG-3" value="New Customer Search" style="verticalAlign=bottom;startArrow=oval;endArrow=block;startSize=8;shadow=0;strokeWidth=1;" parent="3nuBFxr9cyL0pnOWT2aG-1" target="3nuBFxr9cyL0pnOWT2aG-2" edge="1">
          <mxGeometry relative="1" as="geometry">
            <mxPoint x="-105" y="70" as="sourcePoint" />
          </mxGeometry>
        </mxCell>
        <mxCell id="3nuBFxr9cyL0pnOWT2aG-5" value="Billing API" style="shape=umlLifeline;perimeter=lifelinePerimeter;container=1;collapsible=0;recursiveResize=0;rounded=0;shadow=0;strokeWidth=1;" parent="1" vertex="1">
          <mxGeometry x="290" y="80" width="100" height="460" as="geometry" />
        </mxCell>
        <mxCell id="3nuBFxr9cyL0pnOWT2aG-6" value="" style="points=[];perimeter=orthogonalPerimeter;rounded=0;shadow=0;strokeWidth=1;" parent="3nuBFxr9cyL0pnOWT2aG-5" vertex="1">
          <mxGeometry x="45" y="70" width="10" height="390" as="geometry" />
        </mxCell>
        <mxCell id="3nuBFxr9cyL0pnOWT2aG-8" value="Search for Customer" style="verticalAlign=bottom;endArrow=block;entryX=0.487;entryY=0.261;shadow=0;strokeWidth=1;entryDx=0;entryDy=0;entryPerimeter=0;" parent="1" edge="1">
          <mxGeometry relative="1" as="geometry">
            <mxPoint x="200" y="164.39999999999998" as="sourcePoint" />
            <mxPoint x="338.70000000000005" y="164.39999999999998" as="targetPoint" />
          </mxGeometry>
        </mxCell>
        <mxCell id="9oLMlX9w5dWp_TiLa49N-1" value="Store Rep" style="shape=umlActor;verticalLabelPosition=bottom;verticalAlign=top;html=1;" parent="1" vertex="1">
          <mxGeometry x="20" y="40" width="30" height="60" as="geometry" />
        </mxCell>
        <mxCell id="9oLMlX9w5dWp_TiLa49N-2" value="Customer Hub" style="shape=umlLifeline;perimeter=lifelinePerimeter;container=1;collapsible=0;recursiveResize=0;rounded=0;shadow=0;strokeWidth=1;" parent="1" vertex="1">
          <mxGeometry x="430" y="80" width="100" height="460" as="geometry" />
        </mxCell>
        <mxCell id="07al6RQ7ZDh1x_oUpIiP-16" value="" style="html=1;points=[];perimeter=orthogonalPerimeter;" parent="9oLMlX9w5dWp_TiLa49N-2" vertex="1">
          <mxGeometry x="45" y="80" width="10" height="60" as="geometry" />
        </mxCell>
        <mxCell id="07al6RQ7ZDh1x_oUpIiP-27" value="" style="html=1;points=[];perimeter=orthogonalPerimeter;" parent="9oLMlX9w5dWp_TiLa49N-2" vertex="1">
          <mxGeometry x="45" y="345" width="10" height="115" as="geometry" />
        </mxCell>
        <mxCell id="9oLMlX9w5dWp_TiLa49N-6" value="Search for Customer" style="verticalAlign=bottom;endArrow=block;shadow=0;strokeWidth=1;exitX=1.1;exitY=0.125;exitDx=0;exitDy=0;exitPerimeter=0;" parent="1" source="3nuBFxr9cyL0pnOWT2aG-6" target="07al6RQ7ZDh1x_oUpIiP-16" edge="1">
          <mxGeometry relative="1" as="geometry">
            <mxPoint x="370" y="200" as="sourcePoint" />
            <mxPoint x="530" y="171" as="targetPoint" />
          </mxGeometry>
        </mxCell>
        <mxCell id="9oLMlX9w5dWp_TiLa49N-7" value="Capture the customers information. Using a new form" style="text;html=1;strokeColor=none;fillColor=none;align=left;verticalAlign=middle;whiteSpace=wrap;rounded=0;" parent="1" vertex="1">
          <mxGeometry y="160" width="160" height="50" as="geometry" />
        </mxCell>
        <mxCell id="07al6RQ7ZDh1x_oUpIiP-1" value="SmartPay" style="shape=umlLifeline;perimeter=lifelinePerimeter;container=1;collapsible=0;recursiveResize=0;rounded=0;shadow=0;strokeWidth=1;" parent="1" vertex="1">
          <mxGeometry x="580" y="80" width="100" height="400" as="geometry" />
        </mxCell>
        <mxCell id="07al6RQ7ZDh1x_oUpIiP-2" value="" style="points=[];perimeter=orthogonalPerimeter;rounded=0;shadow=0;strokeWidth=1;" parent="07al6RQ7ZDh1x_oUpIiP-1" vertex="1">
          <mxGeometry x="45" y="80" width="10" height="270" as="geometry" />
        </mxCell>
        <mxCell id="07al6RQ7ZDh1x_oUpIiP-4" value="Return Customer Search Results : Customer Not Found" style="verticalAlign=bottom;endArrow=block;shadow=0;strokeWidth=1;exitX=-0.014;exitY=0.84;exitDx=0;exitDy=0;exitPerimeter=0;" parent="1" source="07al6RQ7ZDh1x_oUpIiP-16" edge="1">
          <mxGeometry relative="1" as="geometry">
            <mxPoint x="430" y="211" as="sourcePoint" />
            <mxPoint x="345" y="210.60000000000002" as="targetPoint" />
            <Array as="points" />
          </mxGeometry>
        </mxCell>
        <mxCell id="07al6RQ7ZDh1x_oUpIiP-6" value="Assumptions :&amp;nbsp;&lt;br&gt;" style="text;html=1;strokeColor=none;fillColor=none;align=left;verticalAlign=middle;whiteSpace=wrap;rounded=0;" parent="1" vertex="1">
          <mxGeometry x="50" y="600" width="160" height="20" as="geometry" />
        </mxCell>
        <mxCell id="07al6RQ7ZDh1x_oUpIiP-13" value="Verify the Customer" style="verticalAlign=bottom;endArrow=block;shadow=0;strokeWidth=1;exitX=0.957;exitY=0.273;exitDx=0;exitDy=0;exitPerimeter=0;" parent="1" edge="1">
          <mxGeometry x="0.2755" y="30" relative="1" as="geometry">
            <mxPoint x="348.28999999999996" y="260.00000000000006" as="sourcePoint" />
            <mxPoint x="628.72" y="260.83" as="targetPoint" />
            <Array as="points">
              <mxPoint x="523.72" y="260.83" />
            </Array>
            <mxPoint x="-30" y="30" as="offset" />
          </mxGeometry>
        </mxCell>
        <mxCell id="07al6RQ7ZDh1x_oUpIiP-17" value="Idology" style="shape=umlLifeline;perimeter=lifelinePerimeter;container=1;collapsible=0;recursiveResize=0;rounded=0;shadow=0;strokeWidth=1;" parent="1" vertex="1">
          <mxGeometry x="700" y="80" width="100" height="400" as="geometry" />
        </mxCell>
        <mxCell id="07al6RQ7ZDh1x_oUpIiP-18" value="" style="points=[];perimeter=orthogonalPerimeter;rounded=0;shadow=0;strokeWidth=1;" parent="07al6RQ7ZDh1x_oUpIiP-17" vertex="1">
          <mxGeometry x="45" y="80" width="10" height="250" as="geometry" />
        </mxCell>
        <mxCell id="07al6RQ7ZDh1x_oUpIiP-3" value="Verify Customer" style="verticalAlign=bottom;endArrow=block;shadow=0;strokeWidth=1;exitX=1.071;exitY=0.757;exitDx=0;exitDy=0;exitPerimeter=0;" parent="07al6RQ7ZDh1x_oUpIiP-17" edge="1">
          <mxGeometry relative="1" as="geometry">
            <mxPoint x="-61.28000000000023" y="198.15000000000003" as="sourcePoint" />
            <mxPoint x="48.72" y="198.15000000000003" as="targetPoint" />
            <Array as="points" />
          </mxGeometry>
        </mxCell>
        <mxCell id="fWRRmN0HRxXornxV-yCR-1" value="Text" style="edgeLabel;html=1;align=center;verticalAlign=middle;resizable=0;points=[];" vertex="1" connectable="0" parent="07al6RQ7ZDh1x_oUpIiP-3">
          <mxGeometry x="0.3505" y="1" relative="1" as="geometry">
            <mxPoint as="offset" />
          </mxGeometry>
        </mxCell>
        <mxCell id="07al6RQ7ZDh1x_oUpIiP-21" value="Store Customer if a match is found" style="edgeStyle=orthogonalEdgeStyle;html=1;align=left;spacingLeft=2;endArrow=block;rounded=0;entryX=1.214;entryY=0.523;entryDx=0;entryDy=0;entryPerimeter=0;" parent="07al6RQ7ZDh1x_oUpIiP-17" edge="1">
          <mxGeometry relative="1" as="geometry">
            <mxPoint x="60.72" y="207.82999999999998" as="sourcePoint" />
            <Array as="points">
              <mxPoint x="88.72" y="207.82999999999998" />
              <mxPoint x="88.72" y="227.82999999999998" />
            </Array>
            <mxPoint x="60.85999999999987" y="227.66000000000003" as="targetPoint" />
          </mxGeometry>
        </mxCell>
        <mxCell id="07al6RQ7ZDh1x_oUpIiP-22" value="Return Reference ID" style="verticalAlign=bottom;endArrow=block;shadow=0;strokeWidth=1;entryX=0.986;entryY=0.597;entryDx=0;entryDy=0;entryPerimeter=0;" parent="1" edge="1">
          <mxGeometry relative="1" as="geometry">
            <mxPoint x="748.72" y="324.83" as="sourcePoint" />
            <mxPoint x="638.5800000000002" y="325.2" as="targetPoint" />
          </mxGeometry>
        </mxCell>
        <mxCell id="07al6RQ7ZDh1x_oUpIiP-24" value="Return ReferenceID" style="verticalAlign=bottom;endArrow=block;shadow=0;strokeWidth=1;exitX=-0.157;exitY=0.925;exitDx=0;exitDy=0;exitPerimeter=0;" parent="1" edge="1">
          <mxGeometry relative="1" as="geometry">
            <mxPoint x="627.1500000000001" y="429.58" as="sourcePoint" />
            <mxPoint x="348.72000000000025" y="429.58" as="targetPoint" />
          </mxGeometry>
        </mxCell>
        <mxCell id="07al6RQ7ZDh1x_oUpIiP-25" value="Return Customer Profile and Verification Details" style="verticalAlign=bottom;endArrow=block;shadow=0;strokeWidth=1;exitX=0.1;exitY=0.965;exitDx=0;exitDy=0;exitPerimeter=0;entryX=1.057;entryY=0.964;entryDx=0;entryDy=0;entryPerimeter=0;" parent="1" source="3nuBFxr9cyL0pnOWT2aG-6" target="3nuBFxr9cyL0pnOWT2aG-2" edge="1">
          <mxGeometry relative="1" as="geometry">
            <mxPoint x="330" y="430" as="sourcePoint" />
            <mxPoint x="204" y="448" as="targetPoint" />
          </mxGeometry>
        </mxCell>
        <mxCell id="07al6RQ7ZDh1x_oUpIiP-26" value="Create Customer Profile with Reference ID" style="verticalAlign=bottom;endArrow=block;shadow=0;strokeWidth=1;exitX=1.059;exitY=0.852;exitDx=0;exitDy=0;exitPerimeter=0;" parent="1" source="3nuBFxr9cyL0pnOWT2aG-6" target="07al6RQ7ZDh1x_oUpIiP-27" edge="1">
          <mxGeometry relative="1" as="geometry">
            <mxPoint x="350" y="441" as="sourcePoint" />
            <mxPoint x="479" y="440" as="targetPoint" />
          </mxGeometry>
        </mxCell>
      </root>
    </mxGraphModel>
  </diagram>
  <diagram name="AuthenticID" id="n8bQJupS6qexKqI-eIld">
    <mxGraphModel dx="1422" dy="714" grid="1" gridSize="10" guides="1" tooltips="1" connect="1" arrows="1" fold="1" page="1" pageScale="1" pageWidth="1100" pageHeight="850" math="0" shadow="0">
      <root>
        <mxCell id="t-LBGF_grGspHiDEMXxx-0" />
        <mxCell id="t-LBGF_grGspHiDEMXxx-1" parent="t-LBGF_grGspHiDEMXxx-0" />
        <mxCell id="t-LBGF_grGspHiDEMXxx-2" value="RISE" style="shape=umlLifeline;perimeter=lifelinePerimeter;container=1;collapsible=0;recursiveResize=0;rounded=0;shadow=0;strokeWidth=1;" vertex="1" parent="t-LBGF_grGspHiDEMXxx-1">
          <mxGeometry x="145" y="80" width="100" height="460" as="geometry" />
        </mxCell>
        <mxCell id="t-LBGF_grGspHiDEMXxx-3" value="" style="points=[];perimeter=orthogonalPerimeter;rounded=0;shadow=0;strokeWidth=1;" vertex="1" parent="t-LBGF_grGspHiDEMXxx-2">
          <mxGeometry x="45" y="70" width="10" height="390" as="geometry" />
        </mxCell>
        <mxCell id="t-LBGF_grGspHiDEMXxx-4" value="New Customer Search" style="verticalAlign=bottom;startArrow=oval;endArrow=block;startSize=8;shadow=0;strokeWidth=1;" edge="1" parent="t-LBGF_grGspHiDEMXxx-2" target="t-LBGF_grGspHiDEMXxx-3">
          <mxGeometry relative="1" as="geometry">
            <mxPoint x="-105" y="70" as="sourcePoint" />
          </mxGeometry>
        </mxCell>
        <mxCell id="t-LBGF_grGspHiDEMXxx-5" value="Billing API" style="shape=umlLifeline;perimeter=lifelinePerimeter;container=1;collapsible=0;recursiveResize=0;rounded=0;shadow=0;strokeWidth=1;" vertex="1" parent="t-LBGF_grGspHiDEMXxx-1">
          <mxGeometry x="290" y="80" width="100" height="460" as="geometry" />
        </mxCell>
        <mxCell id="t-LBGF_grGspHiDEMXxx-6" value="" style="points=[];perimeter=orthogonalPerimeter;rounded=0;shadow=0;strokeWidth=1;" vertex="1" parent="t-LBGF_grGspHiDEMXxx-5">
          <mxGeometry x="45" y="70" width="10" height="390" as="geometry" />
        </mxCell>
        <mxCell id="t-LBGF_grGspHiDEMXxx-7" value="Search for Customer" style="verticalAlign=bottom;endArrow=block;entryX=0.487;entryY=0.261;shadow=0;strokeWidth=1;entryDx=0;entryDy=0;entryPerimeter=0;" edge="1" parent="t-LBGF_grGspHiDEMXxx-1">
          <mxGeometry relative="1" as="geometry">
            <mxPoint x="200" y="164.39999999999998" as="sourcePoint" />
            <mxPoint x="338.70000000000005" y="164.39999999999998" as="targetPoint" />
          </mxGeometry>
        </mxCell>
        <mxCell id="t-LBGF_grGspHiDEMXxx-8" value="Store Rep" style="shape=umlActor;verticalLabelPosition=bottom;verticalAlign=top;html=1;" vertex="1" parent="t-LBGF_grGspHiDEMXxx-1">
          <mxGeometry x="20" y="40" width="30" height="60" as="geometry" />
        </mxCell>
        <mxCell id="t-LBGF_grGspHiDEMXxx-9" value="Customer Hub" style="shape=umlLifeline;perimeter=lifelinePerimeter;container=1;collapsible=0;recursiveResize=0;rounded=0;shadow=0;strokeWidth=1;" vertex="1" parent="t-LBGF_grGspHiDEMXxx-1">
          <mxGeometry x="430" y="80" width="100" height="460" as="geometry" />
        </mxCell>
        <mxCell id="t-LBGF_grGspHiDEMXxx-10" value="" style="html=1;points=[];perimeter=orthogonalPerimeter;" vertex="1" parent="t-LBGF_grGspHiDEMXxx-9">
          <mxGeometry x="45" y="80" width="10" height="60" as="geometry" />
        </mxCell>
        <mxCell id="t-LBGF_grGspHiDEMXxx-11" value="" style="html=1;points=[];perimeter=orthogonalPerimeter;" vertex="1" parent="t-LBGF_grGspHiDEMXxx-9">
          <mxGeometry x="45" y="345" width="10" height="115" as="geometry" />
        </mxCell>
        <mxCell id="t-LBGF_grGspHiDEMXxx-12" value="Search for Customer" style="verticalAlign=bottom;endArrow=block;shadow=0;strokeWidth=1;exitX=1.1;exitY=0.125;exitDx=0;exitDy=0;exitPerimeter=0;" edge="1" parent="t-LBGF_grGspHiDEMXxx-1" source="t-LBGF_grGspHiDEMXxx-6" target="t-LBGF_grGspHiDEMXxx-10">
          <mxGeometry relative="1" as="geometry">
            <mxPoint x="370" y="200" as="sourcePoint" />
            <mxPoint x="530" y="171" as="targetPoint" />
          </mxGeometry>
        </mxCell>
        <mxCell id="t-LBGF_grGspHiDEMXxx-13" value="Capture the customers information. Using the AuthenticID ID SDK" style="text;html=1;strokeColor=none;fillColor=none;align=left;verticalAlign=middle;whiteSpace=wrap;rounded=0;" vertex="1" parent="t-LBGF_grGspHiDEMXxx-1">
          <mxGeometry y="160" width="160" height="50" as="geometry" />
        </mxCell>
        <mxCell id="t-LBGF_grGspHiDEMXxx-14" value="Orchestrator" style="shape=umlLifeline;perimeter=lifelinePerimeter;container=1;collapsible=0;recursiveResize=0;rounded=0;shadow=0;strokeWidth=1;" vertex="1" parent="t-LBGF_grGspHiDEMXxx-1">
          <mxGeometry x="580" y="80" width="100" height="400" as="geometry" />
        </mxCell>
        <mxCell id="t-LBGF_grGspHiDEMXxx-15" value="" style="points=[];perimeter=orthogonalPerimeter;rounded=0;shadow=0;strokeWidth=1;" vertex="1" parent="t-LBGF_grGspHiDEMXxx-14">
          <mxGeometry x="45" y="80" width="10" height="270" as="geometry" />
        </mxCell>
        <mxCell id="t-LBGF_grGspHiDEMXxx-16" value="Return Customer Search Results : Customer Not Found" style="verticalAlign=bottom;endArrow=block;shadow=0;strokeWidth=1;exitX=-0.014;exitY=0.84;exitDx=0;exitDy=0;exitPerimeter=0;" edge="1" parent="t-LBGF_grGspHiDEMXxx-1" source="t-LBGF_grGspHiDEMXxx-10">
          <mxGeometry relative="1" as="geometry">
            <mxPoint x="430" y="211" as="sourcePoint" />
            <mxPoint x="345" y="210.60000000000002" as="targetPoint" />
            <Array as="points" />
          </mxGeometry>
        </mxCell>
        <mxCell id="t-LBGF_grGspHiDEMXxx-17" value="Assumptions :&amp;nbsp;&lt;br&gt;" style="text;html=1;strokeColor=none;fillColor=none;align=left;verticalAlign=middle;whiteSpace=wrap;rounded=0;" vertex="1" parent="t-LBGF_grGspHiDEMXxx-1">
          <mxGeometry x="50" y="510" width="160" height="20" as="geometry" />
        </mxCell>
        <mxCell id="t-LBGF_grGspHiDEMXxx-18" value="IAM" style="shape=umlLifeline;perimeter=lifelinePerimeter;container=1;collapsible=0;recursiveResize=0;rounded=0;shadow=0;strokeWidth=1;" vertex="1" parent="t-LBGF_grGspHiDEMXxx-1">
          <mxGeometry x="820" y="80" width="100" height="410" as="geometry" />
        </mxCell>
        <mxCell id="t-LBGF_grGspHiDEMXxx-19" value="" style="points=[];perimeter=orthogonalPerimeter;rounded=0;shadow=0;strokeWidth=1;" vertex="1" parent="t-LBGF_grGspHiDEMXxx-18">
          <mxGeometry x="45" y="80" width="10" height="250" as="geometry" />
        </mxCell>
        <mxCell id="t-LBGF_grGspHiDEMXxx-20" value="Store DocumentID associated &lt;br&gt;with TMOID" style="edgeStyle=orthogonalEdgeStyle;html=1;align=left;spacingLeft=2;endArrow=block;rounded=0;entryX=0.929;entryY=0.87;entryDx=0;entryDy=0;entryPerimeter=0;" edge="1" parent="t-LBGF_grGspHiDEMXxx-18">
          <mxGeometry relative="1" as="geometry">
            <mxPoint x="58.72" y="292.85857142857134" as="sourcePoint" />
            <Array as="points">
              <mxPoint x="91.72" y="292.83" />
              <mxPoint x="91.72" y="312.83" />
            </Array>
            <mxPoint x="58.00999999999996" y="312.93" as="targetPoint" />
          </mxGeometry>
        </mxCell>
        <mxCell id="t-LBGF_grGspHiDEMXxx-21" value="Verify the Customer" style="verticalAlign=bottom;endArrow=block;shadow=0;strokeWidth=1;exitX=0.957;exitY=0.273;exitDx=0;exitDy=0;exitPerimeter=0;" edge="1" parent="t-LBGF_grGspHiDEMXxx-1">
          <mxGeometry x="0.2755" y="30" relative="1" as="geometry">
            <mxPoint x="348.28999999999996" y="260.00000000000006" as="sourcePoint" />
            <mxPoint x="628.72" y="260.83" as="targetPoint" />
            <Array as="points">
              <mxPoint x="523.72" y="260.83" />
            </Array>
            <mxPoint x="-30" y="30" as="offset" />
          </mxGeometry>
        </mxCell>
        <mxCell id="t-LBGF_grGspHiDEMXxx-22" value="AuthenticID" style="shape=umlLifeline;perimeter=lifelinePerimeter;container=1;collapsible=0;recursiveResize=0;rounded=0;shadow=0;strokeWidth=1;" vertex="1" parent="t-LBGF_grGspHiDEMXxx-1">
          <mxGeometry x="700" y="80" width="100" height="400" as="geometry" />
        </mxCell>
        <mxCell id="t-LBGF_grGspHiDEMXxx-23" value="" style="points=[];perimeter=orthogonalPerimeter;rounded=0;shadow=0;strokeWidth=1;" vertex="1" parent="t-LBGF_grGspHiDEMXxx-22">
          <mxGeometry x="45" y="80" width="10" height="250" as="geometry" />
        </mxCell>
        <mxCell id="t-LBGF_grGspHiDEMXxx-24" value="Verify Document" style="verticalAlign=bottom;endArrow=block;shadow=0;strokeWidth=1;exitX=1.071;exitY=0.757;exitDx=0;exitDy=0;exitPerimeter=0;" edge="1" parent="t-LBGF_grGspHiDEMXxx-22">
          <mxGeometry relative="1" as="geometry">
            <mxPoint x="-61.28000000000023" y="198.15000000000003" as="sourcePoint" />
            <mxPoint x="48.72" y="198.15000000000003" as="targetPoint" />
            <Array as="points" />
          </mxGeometry>
        </mxCell>
        <mxCell id="t-LBGF_grGspHiDEMXxx-25" value="Store Document if match is found" style="edgeStyle=orthogonalEdgeStyle;html=1;align=left;spacingLeft=2;endArrow=block;rounded=0;entryX=1.214;entryY=0.523;entryDx=0;entryDy=0;entryPerimeter=0;" edge="1" parent="t-LBGF_grGspHiDEMXxx-22">
          <mxGeometry relative="1" as="geometry">
            <mxPoint x="60.72" y="207.82999999999998" as="sourcePoint" />
            <Array as="points">
              <mxPoint x="88.72" y="207.82999999999998" />
              <mxPoint x="88.72" y="227.82999999999998" />
            </Array>
            <mxPoint x="60.85999999999987" y="227.66000000000003" as="targetPoint" />
          </mxGeometry>
        </mxCell>
        <mxCell id="t-LBGF_grGspHiDEMXxx-26" value="Create TMOID if document is verified" style="verticalAlign=bottom;endArrow=block;shadow=0;strokeWidth=1;exitX=0.929;exitY=0.515;exitDx=0;exitDy=0;exitPerimeter=0;entryX=0.014;entryY=0.512;entryDx=0;entryDy=0;entryPerimeter=0;" edge="1" parent="t-LBGF_grGspHiDEMXxx-1">
          <mxGeometry relative="1" as="geometry">
            <mxPoint x="638.0100000000002" y="363.97999999999996" as="sourcePoint" />
            <mxPoint x="868.8599999999999" y="363.3500000000001" as="targetPoint" />
            <Array as="points">
              <mxPoint x="803.72" y="363.83" />
            </Array>
          </mxGeometry>
        </mxCell>
        <mxCell id="t-LBGF_grGspHiDEMXxx-27" value="Return TMOID" style="verticalAlign=bottom;endArrow=block;shadow=0;strokeWidth=1;exitX=-0.1;exitY=0.665;exitDx=0;exitDy=0;exitPerimeter=0;" edge="1" parent="t-LBGF_grGspHiDEMXxx-1">
          <mxGeometry relative="1" as="geometry">
            <mxPoint x="868.72" y="408.47999999999996" as="sourcePoint" />
            <mxPoint x="639.72" y="408.47999999999996" as="targetPoint" />
          </mxGeometry>
        </mxCell>
        <mxCell id="t-LBGF_grGspHiDEMXxx-28" value="Return Document ID" style="verticalAlign=bottom;endArrow=block;shadow=0;strokeWidth=1;entryX=0.986;entryY=0.597;entryDx=0;entryDy=0;entryPerimeter=0;" edge="1" parent="t-LBGF_grGspHiDEMXxx-1">
          <mxGeometry relative="1" as="geometry">
            <mxPoint x="748.72" y="324.83" as="sourcePoint" />
            <mxPoint x="638.5800000000002" y="325.2" as="targetPoint" />
          </mxGeometry>
        </mxCell>
        <mxCell id="t-LBGF_grGspHiDEMXxx-29" value="Return TMOID" style="verticalAlign=bottom;endArrow=block;shadow=0;strokeWidth=1;exitX=-0.157;exitY=0.925;exitDx=0;exitDy=0;exitPerimeter=0;" edge="1" parent="t-LBGF_grGspHiDEMXxx-1">
          <mxGeometry relative="1" as="geometry">
            <mxPoint x="627.1500000000001" y="429.58" as="sourcePoint" />
            <mxPoint x="348.72000000000025" y="429.58" as="targetPoint" />
          </mxGeometry>
        </mxCell>
        <mxCell id="t-LBGF_grGspHiDEMXxx-30" value="Return Customer Profile and Verification Details" style="verticalAlign=bottom;endArrow=block;shadow=0;strokeWidth=1;exitX=0.1;exitY=0.965;exitDx=0;exitDy=0;exitPerimeter=0;entryX=1.057;entryY=0.964;entryDx=0;entryDy=0;entryPerimeter=0;" edge="1" parent="t-LBGF_grGspHiDEMXxx-1" source="t-LBGF_grGspHiDEMXxx-6" target="t-LBGF_grGspHiDEMXxx-3">
          <mxGeometry relative="1" as="geometry">
            <mxPoint x="330" y="430" as="sourcePoint" />
            <mxPoint x="204" y="448" as="targetPoint" />
          </mxGeometry>
        </mxCell>
        <mxCell id="t-LBGF_grGspHiDEMXxx-31" value="Create Customer Profile with TMOID" style="verticalAlign=bottom;endArrow=block;shadow=0;strokeWidth=1;exitX=1.059;exitY=0.852;exitDx=0;exitDy=0;exitPerimeter=0;" edge="1" parent="t-LBGF_grGspHiDEMXxx-1" source="t-LBGF_grGspHiDEMXxx-6" target="t-LBGF_grGspHiDEMXxx-11">
          <mxGeometry relative="1" as="geometry">
            <mxPoint x="350" y="441" as="sourcePoint" />
            <mxPoint x="479" y="440" as="targetPoint" />
          </mxGeometry>
        </mxCell>
      </root>
    </mxGraphModel>
  </diagram>
</mxfile>
